<svg xmlns="http://www.w3.org/2000/svg" version="1.1" xmlns:xlink="http://www.w3.org/1999/xlink" xmlns:svgjs="http://svgjs.dev/svgjs" width="2000" height="606" viewBox="0 0 2000 606"><g transform="matrix(1,0,0,1,-1.2112696095522324,0.9761144779380402)"><svg viewBox="0 0 396 120" data-background-color="#ffffff" preserveAspectRatio="xMidYMid meet" height="606" width="2000" xmlns="http://www.w3.org/2000/svg" xmlns:xlink="http://www.w3.org/1999/xlink"><g id="tight-bounds" transform="matrix(1,0,0,1,0.24008861730862918,-0.19328999563128946)"><svg viewBox="0 0 395.52 120.38657999126255" height="120.38657999126255" width="395.52"><g><svg viewBox="0 0 395.52 120.38657999126255" height="120.38657999126255" width="395.52"><g><svg viewBox="0 0 395.52 120.38657999126255" height="120.38657999126255" width="395.52"><g id="textblocktransform"><svg viewBox="0 0 395.52 120.38657999126255" height="120.38657999126255" width="395.52" id="textblock"><g><svg viewBox="0 0 395.52 120.38657999126255" height="120.38657999126255" width="395.52"><path d="M394.594 25.821C392.735 13.325 387.435 9.851 387.435 9.851 371.165-3.02 350.86-0.246 332.619 1.603 300.414 1.678 268.339 4.427 236.208 5.902 168.767 6.127 100.749 2.428 33.643 11.55 27.339 14.349-6.54 12.1 1.121 27.42 3.129 33.793 10.456 40.866 10.232 46.714 11.236 47.739 12.631 45.389 13.226 46.864 15.309 50.838 18.711 48.963 21.501 51.313 17.614 57.586 20.403 62.809 23.062 68.282 18.377 69.707 12.371 69.032 9.675 73.756 9.396 77.18 7.89 76.53 6.235 76.38 5.026 76.28 2.59 76.655 2.999 77.729 4.394 81.403-1.594 83.528 2.162 87.126-0.422 91.025 3.948 94.399 3.353 98.623 3.278 99.473 3.687 100.197 4.338 100.397 7.22 101.472 3.018 103.571 3.464 105.846 33.029 121.391 65.104 110.644 95.394 117.792 103.259 112.793 97.346 119.566 100.489 118.517 102.943 117.292 104.728 122.365 107.499 119.491 107.927 118.667 107.276 116.717 108.8 117.092 109.6 117.292 110.307 117.242 110.418 116.092 110.586 114.368 109.117 115.443 108.726 114.543 112.947 109.994 111.906 120.816 115.866 120.366 115.68 119.041 114.528 117.142 116.889 117.392 119.232 115.493 119.306 113.918 121.389 118.192 121.463 119.116 121.835 119.766 122.43 120.216 128.938 115.567 135.409 121.866 142.233 119.766 146.417 117.467 150.433 121.016 154.672 120.141 156.16 119.441 157.666 118.192 159.098 120.291 176.632 120.741 195.319 118.866 211.943 120.366 256.364 117.567 303.836 121.516 350.674 117.817 361.719 116.392 373.192 114.368 383.958 112.743 383.958 112.743 392.679 108.295 392.679 88.301S394.538 70.807 394.817 54.887C395.096 38.966 396.398 38.317 394.538 25.821Z" opacity="1" fill="#84a0b0" data-fill-palette-color="tertiary"></path><g transform="matrix(1,0,0,1,55.76832,26.230666666666668)"><svg width="283.98335999999995" viewBox="1.35 -35.9 152.58 36.5" height="67.92524665792921" data-palette-color="#395c6b"><path d="M10.4 0L4.65 0 4.65-20 1.35-20 1.35-24.3 4.65-24.55 4.65-27.1Q4.65-29 5.1-30.63 5.55-32.25 6.55-33.43 7.55-34.6 9.08-35.25 10.6-35.9 12.8-35.9L12.8-35.9Q14.1-35.9 15.28-35.65 16.45-35.4 17.3-35.05L17.3-35.05 16.2-30.75Q14.85-31.35 13.5-31.35L13.5-31.35Q10.4-31.35 10.4-27.2L10.4-27.2 10.4-24.55 15.2-24.55 15.2-20 10.4-20 10.4 0ZM29.5 0.6L29.5 0.6Q26.95 0.6 24.75-0.28 22.55-1.15 20.9-2.8 19.25-4.45 18.32-6.83 17.4-9.2 17.4-12.25L17.4-12.25Q17.4-15.25 18.35-17.65 19.3-20.05 20.87-21.7 22.45-23.35 24.5-24.25 26.55-25.15 28.7-25.15L28.7-25.15Q31.2-25.15 33.1-24.3 35-23.45 36.27-21.9 37.55-20.35 38.2-18.2 38.85-16.05 38.85-13.5L38.85-13.5Q38.85-12.65 38.77-11.9 38.7-11.15 38.6-10.7L38.6-10.7 23-10.7Q23.4-7.4 25.32-5.63 27.25-3.85 30.25-3.85L30.25-3.85Q31.85-3.85 33.22-4.33 34.6-4.8 35.95-5.65L35.95-5.65 37.9-2.05Q36.15-0.9 34-0.15 31.85 0.6 29.5 0.6ZM22.95-14.6L22.95-14.6 33.85-14.6Q33.85-17.45 32.62-19.07 31.4-20.7 28.85-20.7L28.85-20.7Q26.65-20.7 25-19.15 23.35-17.6 22.95-14.6ZM49.95 0.6L49.95 0.6Q46.85 0.6 45.6-1.25 44.35-3.1 44.35-6.3L44.35-6.3 44.35-35.3 50.1-35.3 50.1-6Q50.1-4.95 50.5-4.53 50.9-4.1 51.35-4.1L51.35-4.1Q51.55-4.1 51.72-4.1 51.9-4.1 52.25-4.2L52.25-4.2 53 0.1Q51.85 0.6 49.95 0.6ZM63.64 0L57.89 0 57.89-24.55 63.64-24.55 63.64 0ZM60.79-28.85L60.79-28.85Q59.24-28.85 58.24-29.75 57.24-30.65 57.24-32.1L57.24-32.1Q57.24-33.55 58.24-34.48 59.24-35.4 60.79-35.4L60.79-35.4Q62.34-35.4 63.34-34.48 64.34-33.55 64.34-32.1L64.34-32.1Q64.34-30.65 63.34-29.75 62.34-28.85 60.79-28.85ZM74.04 0L68.04 0 75.84-12.8 68.54-24.55 74.74-24.55 77.49-19.9Q78.04-18.9 78.62-17.82 79.19-16.75 79.74-15.75L79.74-15.75 79.94-15.75Q80.39-16.75 80.89-17.82 81.39-18.9 81.84-19.9L81.84-19.9 84.19-24.55 90.14-24.55 82.89-12.15 90.69 0 84.49 0 81.49-4.85Q80.89-5.95 80.27-7.05 79.64-8.15 78.99-9.2L78.99-9.2 78.79-9.2Q78.24-8.15 77.72-7.08 77.19-6 76.64-4.85L76.64-4.85 74.04 0ZM100.64 0.6L100.64 0.6Q97.54 0.6 96.29-1.25 95.04-3.1 95.04-6.3L95.04-6.3 95.04-35.3 100.79-35.3 100.79-6Q100.79-4.95 101.19-4.53 101.59-4.1 102.04-4.1L102.04-4.1Q102.24-4.1 102.41-4.1 102.59-4.1 102.94-4.2L102.94-4.2 103.69 0.1Q102.54 0.6 100.64 0.6ZM114.53 0.6L114.53 0.6Q111.28 0.6 109.28-1.38 107.28-3.35 107.28-6.6L107.28-6.6Q107.28-8.55 108.11-10.08 108.94-11.6 110.71-12.7 112.48-13.8 115.21-14.55 117.94-15.3 121.73-15.7L121.73-15.7Q121.69-16.65 121.46-17.53 121.23-18.4 120.71-19.07 120.19-19.75 119.34-20.13 118.48-20.5 117.23-20.5L117.23-20.5Q115.44-20.5 113.71-19.8 111.98-19.1 110.34-18.1L110.34-18.1 108.23-21.95Q110.28-23.25 112.84-24.2 115.39-25.15 118.34-25.15L118.34-25.15Q122.94-25.15 125.21-22.43 127.48-19.7 127.48-14.55L127.48-14.55 127.48 0 122.73 0 122.34-2.7 122.14-2.7Q120.48-1.3 118.61-0.35 116.73 0.6 114.53 0.6ZM116.39-3.9L116.39-3.9Q117.89-3.9 119.11-4.6 120.34-5.3 121.73-6.6L121.73-6.6 121.73-12.1Q119.23-11.8 117.53-11.3 115.84-10.8 114.78-10.18 113.73-9.55 113.28-8.75 112.84-7.95 112.84-7.05L112.84-7.05Q112.84-5.4 113.84-4.65 114.84-3.9 116.39-3.9ZM140.13 0L134.38 0 134.38-24.55 140.13-24.55 140.13 0ZM137.28-28.85L137.28-28.85Q135.73-28.85 134.73-29.75 133.73-30.65 133.73-32.1L133.73-32.1Q133.73-33.55 134.73-34.48 135.73-35.4 137.28-35.4L137.28-35.4Q138.83-35.4 139.83-34.48 140.83-33.55 140.83-32.1L140.83-32.1Q140.83-30.65 139.83-29.75 138.83-28.85 137.28-28.85ZM153.23 0L147.48 0 147.48-24.55 153.23-24.55 153.23 0ZM150.38-28.85L150.38-28.85Q148.83-28.85 147.83-29.75 146.83-30.65 146.83-32.1L146.83-32.1Q146.83-33.55 147.83-34.48 148.83-35.4 150.38-35.4L150.38-35.4Q151.93-35.4 152.93-34.48 153.93-33.55 153.93-32.1L153.93-32.1Q153.93-30.65 152.93-29.75 151.93-28.85 150.38-28.85Z" opacity="1" transform="matrix(1,0,0,1,0,0)" fill="#395c6b" class="wordmark-text-0" data-fill-palette-color="quaternary" id="text-0"></path></svg></g></svg></g></svg></g></svg></g></svg></g><defs></defs></svg><rect width="395.52" height="120.38657999126255" fill="none" stroke="none" visibility="hidden"></rect></g></svg></g></svg>