<svg xmlns="http://www.w3.org/2000/svg" version="1.1" xmlns:xlink="http://www.w3.org/1999/xlink" xmlns:svgjs="http://svgjs.dev/svgjs" width="2000" height="2250" viewBox="0 0 2000 2250"><g transform="matrix(1,0,0,1,0,0)"><svg viewBox="0 0 320 360" data-background-color="#ffffff" preserveAspectRatio="xMidYMid meet" height="2250" width="2000" xmlns="http://www.w3.org/2000/svg" xmlns:xlink="http://www.w3.org/1999/xlink"><g id="tight-bounds" transform="matrix(1,0,0,1,0,0)"><svg viewBox="0 0 320 360" height="360" width="320"><g><svg></svg></g><g><svg viewBox="0 0 320 360" height="360" width="320"><g><path d="M320 187.111c0-45.764-20.238-86.866-52.203-114.908-28.043-31.964-69.145-52.203-114.908-52.203-84.302 0-152.889 68.587-152.889 152.889 0 45.753 20.231 86.848 52.185 114.891 28.043 31.975 69.152 52.22 114.926 52.22 0.299 0 0.59-0.021 0.889-0.021 0.299 0 0.59 0.021 0.889 0.021 83.456 0 151.111-67.655 151.111-151.111 0-0.299-0.021-0.59-0.021-0.889 0-0.299 0.021-0.59 0.021-0.889zM59.833 263.097c-15.093-21.255-24.071-47.143-24.256-75.097 0.48-72.928 59.492-131.943 132.423-132.423 27.954 0.185 53.845 9.163 75.097 24.256 24.366 23.627 39.57 56.64 39.57 93.056 0 71.559-58.219 129.778-129.778 129.778-36.416 0-69.429-15.204-93.056-39.57zM3.556 172.889c0-82.343 66.99-149.333 149.333-149.333 35.051 0 67.292 12.167 92.8 32.462-22.98-13.824-49.863-21.796-78.578-21.796-84.302 0-152.889 68.587-152.889 152.889 0 28.708 7.968 55.584 21.785 78.56-20.288-25.5-32.452-57.739-32.451-92.782zM167.111 318.667c-35.84 0-68.363-14.418-92.107-37.743 21.952 15.89 48.864 25.298 77.885 25.298 73.522 0 133.333-59.812 133.333-133.333 0-29.02-9.408-55.932-25.298-77.885 23.324 23.744 37.742 56.267 37.743 92.107 0 72.54-59.015 131.556-131.556 131.556z" fill="#395c6b" fill-rule="nonzero" stroke="none" stroke-width="1" stroke-linecap="butt" stroke-linejoin="miter" stroke-miterlimit="10" stroke-dasharray="" stroke-dashoffset="0" font-family="none" font-weight="none" font-size="none" text-anchor="none" style="mix-blend-mode: normal" data-fill-palette-color="tertiary"></path></g><g transform="matrix(1,0,0,1,64,157.03800786369592)"><svg viewBox="0 0 192 45.92398427260813" height="45.92398427260813" width="192"><g><svg viewBox="0 0 192 45.92398427260813" height="45.92398427260813" width="192"><g><svg viewBox="0 0 192 45.92398427260813" height="45.92398427260813" width="192"><g><svg viewBox="0 0 192 45.92398427260813" height="45.92398427260813" width="192"><g id="textblocktransform"><svg viewBox="0 0 192 45.92398427260813" height="45.92398427260813" width="192" id="textblock"><g><svg viewBox="0 0 192 45.92398427260813" height="45.92398427260813" width="192"><g transform="matrix(1,0,0,1,0,0)"><svg width="192" viewBox="1.35 -35.9 152.58 36.5" height="45.92398427260813" data-palette-color="#395c6b"><path d="M10.4 0L4.65 0 4.65-20 1.35-20 1.35-24.3 4.65-24.55 4.65-27.1Q4.65-29 5.1-30.63 5.55-32.25 6.55-33.43 7.55-34.6 9.08-35.25 10.6-35.9 12.8-35.9L12.8-35.9Q14.1-35.9 15.28-35.65 16.45-35.4 17.3-35.05L17.3-35.05 16.2-30.75Q14.85-31.35 13.5-31.35L13.5-31.35Q10.4-31.35 10.4-27.2L10.4-27.2 10.4-24.55 15.2-24.55 15.2-20 10.4-20 10.4 0ZM29.5 0.6L29.5 0.6Q26.95 0.6 24.75-0.28 22.55-1.15 20.9-2.8 19.25-4.45 18.32-6.83 17.4-9.2 17.4-12.25L17.4-12.25Q17.4-15.25 18.35-17.65 19.3-20.05 20.87-21.7 22.45-23.35 24.5-24.25 26.55-25.15 28.7-25.15L28.7-25.15Q31.2-25.15 33.1-24.3 35-23.45 36.27-21.9 37.55-20.35 38.2-18.2 38.85-16.05 38.85-13.5L38.85-13.5Q38.85-12.65 38.77-11.9 38.7-11.15 38.6-10.7L38.6-10.7 23-10.7Q23.4-7.4 25.32-5.63 27.25-3.85 30.25-3.85L30.25-3.85Q31.85-3.85 33.22-4.33 34.6-4.8 35.95-5.65L35.95-5.65 37.9-2.05Q36.15-0.9 34-0.15 31.85 0.6 29.5 0.6ZM22.95-14.6L22.95-14.6 33.85-14.6Q33.85-17.45 32.62-19.07 31.4-20.7 28.85-20.7L28.85-20.7Q26.65-20.7 25-19.15 23.35-17.6 22.95-14.6ZM49.95 0.6L49.95 0.6Q46.85 0.6 45.6-1.25 44.35-3.1 44.35-6.3L44.35-6.3 44.35-35.3 50.1-35.3 50.1-6Q50.1-4.95 50.5-4.53 50.9-4.1 51.35-4.1L51.35-4.1Q51.55-4.1 51.72-4.1 51.9-4.1 52.25-4.2L52.25-4.2 53 0.1Q51.85 0.6 49.95 0.6ZM63.64 0L57.89 0 57.89-24.55 63.64-24.55 63.64 0ZM60.79-28.85L60.79-28.85Q59.24-28.85 58.24-29.75 57.24-30.65 57.24-32.1L57.24-32.1Q57.24-33.55 58.24-34.48 59.24-35.4 60.79-35.4L60.79-35.4Q62.34-35.4 63.34-34.48 64.34-33.55 64.34-32.1L64.34-32.1Q64.34-30.65 63.34-29.75 62.34-28.85 60.79-28.85ZM74.04 0L68.04 0 75.84-12.8 68.54-24.55 74.74-24.55 77.49-19.9Q78.04-18.9 78.62-17.82 79.19-16.75 79.74-15.75L79.74-15.75 79.94-15.75Q80.39-16.75 80.89-17.82 81.39-18.9 81.84-19.9L81.84-19.9 84.19-24.55 90.14-24.55 82.89-12.15 90.69 0 84.49 0 81.49-4.85Q80.89-5.95 80.27-7.05 79.64-8.15 78.99-9.2L78.99-9.2 78.79-9.2Q78.24-8.15 77.72-7.08 77.19-6 76.64-4.85L76.64-4.85 74.04 0ZM100.64 0.6L100.64 0.6Q97.54 0.6 96.29-1.25 95.04-3.1 95.04-6.3L95.04-6.3 95.04-35.3 100.79-35.3 100.79-6Q100.79-4.95 101.19-4.53 101.59-4.1 102.04-4.1L102.04-4.1Q102.24-4.1 102.41-4.1 102.59-4.1 102.94-4.2L102.94-4.2 103.69 0.1Q102.54 0.6 100.64 0.6ZM114.53 0.6L114.53 0.6Q111.28 0.6 109.28-1.38 107.28-3.35 107.28-6.6L107.28-6.6Q107.28-8.55 108.11-10.08 108.94-11.6 110.71-12.7 112.48-13.8 115.21-14.55 117.94-15.3 121.73-15.7L121.73-15.7Q121.69-16.65 121.46-17.53 121.23-18.4 120.71-19.07 120.19-19.75 119.34-20.13 118.48-20.5 117.23-20.5L117.23-20.5Q115.44-20.5 113.71-19.8 111.98-19.1 110.34-18.1L110.34-18.1 108.23-21.95Q110.28-23.25 112.84-24.2 115.39-25.15 118.34-25.15L118.34-25.15Q122.94-25.15 125.21-22.43 127.48-19.7 127.48-14.55L127.48-14.55 127.48 0 122.73 0 122.34-2.7 122.14-2.7Q120.48-1.3 118.61-0.35 116.73 0.6 114.53 0.6ZM116.39-3.9L116.39-3.9Q117.89-3.9 119.11-4.6 120.34-5.3 121.73-6.6L121.73-6.6 121.73-12.1Q119.23-11.8 117.53-11.3 115.84-10.8 114.78-10.18 113.73-9.55 113.28-8.75 112.84-7.95 112.84-7.05L112.84-7.05Q112.84-5.4 113.84-4.65 114.84-3.9 116.39-3.9ZM140.13 0L134.38 0 134.38-24.55 140.13-24.55 140.13 0ZM137.28-28.85L137.28-28.85Q135.73-28.85 134.73-29.75 133.73-30.65 133.73-32.1L133.73-32.1Q133.73-33.55 134.73-34.48 135.73-35.4 137.28-35.4L137.28-35.4Q138.83-35.4 139.83-34.48 140.83-33.55 140.83-32.1L140.83-32.1Q140.83-30.65 139.83-29.75 138.83-28.85 137.28-28.85ZM153.23 0L147.48 0 147.48-24.55 153.23-24.55 153.23 0ZM150.38-28.85L150.38-28.85Q148.83-28.85 147.83-29.75 146.83-30.65 146.83-32.1L146.83-32.1Q146.83-33.55 147.83-34.48 148.83-35.4 150.38-35.4L150.38-35.4Q151.93-35.4 152.93-34.48 153.93-33.55 153.93-32.1L153.93-32.1Q153.93-30.65 152.93-29.75 151.93-28.85 150.38-28.85Z" opacity="1" transform="matrix(1,0,0,1,0,0)" fill="#395c6b" class="wordmark-text-0" data-fill-palette-color="primary" id="text-0"></path></svg></g></svg></g></svg></g></svg></g></svg></g></svg></g></svg></g></svg></g><defs></defs></svg><rect width="320" height="360" fill="none" stroke="none" visibility="hidden"></rect></g></svg></g></svg>